<?xml version="1.0" standalone="no"?>
<!DOCTYPE svg PUBLIC "-//W3C//DTD SVG 20010904//EN"
 "http://www.w3.org/TR/2001/REC-SVG-20010904/DTD/svg10.dtd">
<svg version="1.0" xmlns="http://www.w3.org/2000/svg"
 width="567.000000pt" height="305.000000pt" viewBox="0 0 567.000000 305.000000"
 preserveAspectRatio="xMidYMid meet">

<g transform="translate(0.000000,305.000000) scale(0.100000,-0.100000)"
fill="#000000" stroke="none">
<path d="M0 2295 l0 -756 50 2 c46 2 50 5 51 28 0 14 3 21 5 14 5 -11 -29
-284 -41 -340 -3 -14 -15 -24 -35 -28 l-30 -7 0 -604 0 -604 2835 0 2835 0 0
649 0 650 -27 3 -28 3 -31 255 c-17 140 -33 261 -35 269 -3 7 -16 -76 -29
-185 -23 -191 -37 -278 -39 -242 -1 10 -21 162 -46 339 -52 370 -50 356 -30
335 9 -8 27 -13 43 -11 15 2 71 4 125 4 l97 1 0 490 0 490 -2835 0 -2835 0 0
-755z m1830 525 c0 -5 -4 -10 -10 -10 -5 0 -10 5 -10 10 0 6 5 10 10 10 6 0
10 -4 10 -10z m3210 -210 c0 -5 -5 -10 -11 -10 -5 0 -7 5 -4 10 3 6 8 10 11
10 2 0 4 -4 4 -10z m-3380 -154 c0 -3 -4 -8 -10 -11 -5 -3 -10 -1 -10 4 0 6 5
11 10 11 6 0 10 -2 10 -4z m1065 -16 c3 -5 1 -10 -4 -10 -6 0 -11 5 -11 10 0
6 2 10 4 10 3 0 8 -4 11 -10z m263 -79 c0 -35 -3 -40 -30 -45 -46 -9 -62 -7
-84 9 -19 15 -19 15 1 13 42 -3 55 3 70 32 9 17 13 41 10 53 l-6 22 20 -23
c13 -15 20 -36 19 -61z m1602 -71 c0 -5 -4 -10 -10 -10 -5 0 -10 5 -10 10 0 6
5 10 10 10 6 0 10 -4 10 -10z m660 -567 c-28 -202 -53 -375 -56 -384 -3 -11
-12 -15 -28 -12 -21 4 -26 14 -35 67 -6 35 -11 75 -11 90 0 51 -18 16 -25 -49
-3 -36 -10 -67 -15 -70 -4 -3 -6 -14 -3 -25 3 -12 0 -20 -6 -20 -7 0 -9 5 -5
12 5 8 2 9 -10 5 -9 -4 -15 -3 -12 2 8 12 -20 22 -39 15 -13 -5 -15 15 -15
149 l0 155 30 7 c43 9 44 20 5 44 -32 18 -35 24 -35 66 0 25 4 45 9 45 6 0 43
15 84 34 l75 34 -18 63 c-9 35 -20 82 -24 104 l-6 40 14 -32 c15 -32 34 -47
22 -18 -6 18 5 20 22 3 8 -8 15 -8 24 0 7 6 31 12 53 14 34 3 41 7 44 28 2 14
6 20 8 13 2 -6 -19 -177 -47 -380z m-422 330 c-21 -23 -58 -132 -58 -171 0 -4
36 -21 80 -37 l80 -29 0 -96 0 -97 -47 -34 -48 -34 48 -3 47 -3 0 -110 c0 -74
-4 -109 -11 -109 -8 0 -7 -6 2 -17 12 -15 12 -16 -3 -10 -22 8 -24 -9 -2 -21
9 -5 14 -18 12 -31 l-3 -23 -26 21 c-24 18 -35 55 -109 353 -45 183 -84 340
-87 348 -3 8 -45 -144 -93 -338 -48 -194 -89 -354 -91 -356 -14 -11 -94 -24
-100 -15 -3 5 -19 97 -35 204 -16 107 -31 195 -34 195 -3 0 -21 -101 -39 -224
-31 -202 -37 -225 -55 -230 -11 -3 -22 -3 -25 -1 -2 3 -12 53 -22 111 -24 141
-24 141 -38 49 -33 -217 -29 -203 -78 -236 -24 -17 -51 -32 -59 -33 -8 -1 -20
-8 -26 -14 -7 -7 -16 -12 -21 -12 -5 0 3 10 19 22 16 12 44 35 63 52 19 17 30
25 26 17 -5 -9 -3 -12 5 -9 22 7 23 28 2 28 -34 0 -146 -31 -172 -48 -76 -48
-151 -82 -184 -82 -24 0 -71 -18 -143 -56 -117 -60 -130 -62 -248 -34 -49 11
-53 10 -165 -38 -63 -27 -117 -48 -119 -46 -2 2 -9 34 -16 71 l-11 68 -14 -88
c-12 -81 -16 -91 -45 -113 -30 -23 -143 -74 -164 -74 -4 0 -12 15 -16 33 l-7
32 -12 -45 c-14 -51 -12 -56 25 -65 18 -4 31 -1 43 10 11 11 16 12 16 4 0 -7
7 -5 16 7 14 18 15 17 9 -17 -5 -35 -4 -36 34 -48 84 -25 65 -38 -112 -76
l-128 -28 -136 17 c-76 9 -138 18 -140 20 -2 1 -12 49 -24 107 -12 57 -22 105
-24 107 -1 1 -10 -37 -19 -85 -10 -49 -19 -96 -22 -105 -6 -19 -39 -24 -49 -8
-8 12 -65 263 -61 267 4 4 158 -34 235 -59 53 -17 65 -18 72 -7 7 11 9 11 9
-2 0 -9 11 -20 24 -23 13 -3 32 -9 42 -13 14 -5 16 -3 11 11 -4 9 -3 15 2 11
14 -8 22 46 12 80 l-8 30 -8 -40 -9 -40 -17 55 c-9 30 -17 47 -18 38 -1 -10
-5 -18 -11 -18 -5 0 -10 -8 -11 -17 0 -12 -4 -8 -11 10 -5 15 -13 25 -18 22
-4 -3 -11 22 -15 55 -8 67 -25 91 -25 36 0 -33 -19 -54 -21 -23 0 9 -2 9 -5 0
-4 -8 -20 -6 -61 8 -31 10 -63 19 -72 18 -9 0 12 -9 47 -20 35 -11 66 -27 69
-35 3 -9 0 -34 -8 -57 l-13 -42 -7 35 c-3 20 -7 26 -8 15 -2 -15 -5 -13 -14
12 -18 48 -26 49 -33 5 -8 -50 -24 -46 -25 6 0 31 -2 34 -10 17 -7 -17 -8 -15
-6 10 2 27 -2 31 -38 43 -53 17 -72 36 -80 80 -6 33 -8 35 -16 15 -5 -15 -14
-20 -28 -16 -16 4 -21 1 -21 -16 0 -24 -3 -25 -31 -8 -17 10 -22 9 -35 -7 -8
-11 -14 -29 -15 -40 0 -13 -6 -5 -14 19 -7 22 -13 32 -14 23 -2 -33 -20 -19
-32 25 -11 39 -13 40 -20 17 -6 -21 -7 -21 -8 -5 -1 14 -4 16 -9 8 -12 -19
-52 12 -52 40 -1 50 -18 49 -25 -2 -4 -28 -10 -51 -15 -51 -4 0 -11 -15 -15
-32 l-8 -33 -4 28 c-5 34 -23 36 -23 3 0 -14 -5 -28 -10 -31 -37 -23 22 -48
135 -60 85 -8 195 -45 195 -64 -1 -9 -7 -41 -14 -71 l-13 -55 -15 65 c-18 74
-18 75 -53 -82 l-26 -118 -92 7 c-60 4 -144 21 -242 48 -164 46 -186 62 -115
85 50 16 59 29 35 47 -11 7 -15 13 -9 13 5 0 2 5 -6 10 -11 7 -11 10 -2 10 7
0 10 5 7 10 -4 6 15 9 52 8 l58 -1 -50 -7 c-36 -5 -12 -7 85 -9 74 0 152 -4
173 -7 24 -5 37 -3 37 5 0 6 -11 11 -25 11 -14 0 -41 6 -60 14 -19 8 -47 14
-62 14 -16 -1 -43 6 -60 16 -20 10 -56 16 -95 16 -78 0 -108 8 -102 25 3 7 1
23 -6 34 -9 19 -8 21 15 21 19 0 25 5 25 21 0 18 4 20 32 14 54 -12 78 -24 76
-37 -2 -8 15 -15 47 -19 28 -3 51 -6 52 -5 1 1 -6 33 -15 71 -15 65 -17 68
-22 35 -6 -40 -14 -32 -25 25 l-8 40 -12 -50 c-7 -27 -13 -41 -14 -30 -1 16
-3 17 -10 6 -7 -11 -12 -6 -19 20 -7 24 -10 28 -11 12 -1 -32 -18 -37 -24 -7
-3 16 1 28 9 31 7 2 25 21 41 41 l28 37 -38 -23 c-47 -27 -60 -28 -27 -1 64
51 63 51 110 27 24 -13 56 -36 72 -53 l29 -30 -15 32 c-9 17 -20 33 -26 35 -6
2 1 24 15 51 14 26 21 47 15 47 -9 0 -87 -34 -153 -66 -16 -8 -37 -14 -48 -14
-11 0 -34 -7 -50 -16 -17 -8 -32 -14 -34 -12 -2 2 -10 31 -18 63 l-13 60 -14
-75 c-12 -70 -32 -106 -51 -94 -5 3 -9 17 -9 32 0 55 -17 55 -25 0 -8 -50 -9
-43 -36 137 -15 105 -28 204 -28 222 -1 27 -4 31 -22 28 -12 -3 -24 -7 -28
-11 -3 -4 2 -4 12 -1 14 5 17 1 16 -26 0 -18 -3 -49 -7 -69 -7 -36 -8 -36 -32
-23 -22 13 -23 14 -5 15 20 1 20 1 1 15 -17 13 -18 15 -3 15 9 0 17 1 17 3 0
1 -7 27 -15 57 -17 63 -19 81 -5 60 12 -19 326 -22 380 -4 21 8 36 9 38 3 3
-6 9 -6 16 0 7 6 40 10 73 8 45 -1 59 1 56 11 -5 13 2 14 112 18 33 1 103 7
155 14 52 6 124 14 160 16 77 6 92 14 26 14 -29 0 -45 4 -41 10 3 5 32 10 63
10 31 1 85 7 119 14 35 7 60 10 57 5 -7 -13 108 -11 126 1 11 8 7 9 -15 5 -24
-5 -27 -4 -13 4 9 6 44 13 77 15 41 2 68 9 81 21 11 10 20 13 20 7 0 -5 -21
-29 -46 -51 -26 -23 -41 -41 -34 -41 14 0 74 32 78 42 2 4 10 4 18 1 8 -3 14
0 14 6 0 6 25 22 55 36 30 13 55 27 55 30 0 3 -4 4 -9 1 -11 -7 -71 4 -71 13
0 3 21 19 47 36 37 23 48 26 51 15 3 -8 19 -26 35 -40 16 -14 47 -43 69 -65
39 -39 39 -40 21 -8 -10 18 -22 33 -26 33 -5 0 -5 5 -1 12 4 6 3 8 -4 4 -6 -3
-13 -2 -16 3 -4 5 7 7 24 5 17 -3 30 -1 30 5 0 6 11 11 24 11 33 0 57 10 50
21 -8 13 7 11 39 -6 17 -9 35 -11 49 -6 l22 8 -22 5 c-12 4 -20 2 -16 -3 3 -5
0 -9 -5 -9 -6 0 -11 6 -11 13 0 8 22 12 72 13 40 1 89 4 108 7 35 7 61 10 175
22 33 4 69 11 80 15 20 9 131 31 143 28 4 -1 20 4 36 11 16 6 43 10 61 9 18
-1 39 2 47 8 7 5 27 9 43 7 17 -1 53 2 80 7 28 5 79 12 114 15 35 3 69 8 74
12 13 8 160 24 215 23 24 -1 77 6 118 16 41 9 88 14 104 12 16 -2 27 -1 24 4
-3 4 17 7 45 7 42 -1 56 3 88 30 46 38 55 40 21 4z m-448 7 c0 -5 -5 -10 -11
-10 -5 0 -7 5 -4 10 3 6 8 10 11 10 2 0 4 -4 4 -10z m-1960 -74 c0 -3 -4 -8
-10 -11 -5 -3 -10 -1 -10 4 0 6 5 11 10 11 6 0 10 -2 10 -4z m720 -146 c0 -5
-4 -10 -10 -10 -5 0 -10 5 -10 10 0 6 5 10 10 10 6 0 10 -4 10 -10z m-284 -99
c-9 -14 -46 -20 -46 -8 0 7 -5 5 -10 -3 -5 -8 -10 -10 -10 -4 0 6 3 14 7 17
10 10 65 8 59 -2z m-1466 -72 c219 -19 227 -26 29 -28 l-187 -1 -5 26 c-4 25
-3 26 27 19 17 -4 78 -11 136 -16z m-260 -9 c0 -18 -6 -20 -57 -19 -48 1 -53
2 -28 9 17 4 41 12 55 18 14 6 26 11 28 11 1 1 2 -8 2 -19z m-1013 -52 c-3 -7
-5 -2 -5 12 0 14 2 19 5 13 2 -7 2 -19 0 -25z m221 -19 c3 -11 2 -11 -7 1 -9
13 -11 13 -11 -2 0 -9 5 -20 10 -23 6 -4 8 -10 5 -15 -3 -5 0 -12 6 -16 7 -4
9 -3 5 4 -3 6 -2 13 3 17 6 3 7 13 4 22 -4 11 -3 14 5 9 7 -4 12 -28 12 -54 0
-36 -5 -50 -20 -60 -17 -10 -20 -9 -26 13 -3 14 -4 37 -2 50 3 14 1 25 -3 25
-5 0 -9 12 -9 26 0 27 21 29 28 3z m822 11 c0 -5 -5 -10 -11 -10 -5 0 -7 5 -4
10 3 6 8 10 11 10 2 0 4 -4 4 -10z m97 -12 c-3 -8 -6 -5 -6 6 -1 11 2 17 5 13
3 -3 4 -12 1 -19z m-800 -7 c0 -11 -7 -17 -14 -14 -9 4 -9 8 0 19 16 17 16 17
14 -5z m446 0 c23 -10 51 -22 62 -27 13 -6 -56 -10 -190 -12 -115 -1 -213 -6
-217 -10 -8 -8 409 -5 423 4 5 3 18 2 29 -1 11 -4 20 -3 19 2 -3 18 1 46 7 41
10 -11 -49 -399 -60 -395 -6 2 -18 56 -27 120 -9 64 -18 119 -21 122 -3 3 -11
-42 -18 -100 -13 -107 -19 -117 -53 -90 -11 7 -26 11 -35 9 -15 -5 -14 -4 0 6
13 8 23 8 37 0 30 -15 40 -11 11 5 -14 7 -35 11 -47 8 -14 -3 -23 -1 -23 7 0
6 5 8 13 4 6 -4 4 2 -5 13 -10 11 -18 30 -18 44 0 19 -2 21 -10 9 -5 -8 -10
-25 -10 -38 0 -17 -10 -27 -36 -38 -20 -9 -40 -12 -44 -7 -4 4 -15 55 -24 113
-9 57 -18 106 -20 108 -4 3 -20 -81 -33 -173 -7 -46 -8 -48 -14 -20 -4 17 -7
47 -8 68 -2 65 -18 40 -26 -39 -5 -51 -10 -72 -16 -63 -5 8 -9 29 -9 47 0 17
-4 32 -10 32 -5 0 -10 -16 -10 -35 0 -37 -10 -44 -75 -61 l-24 -6 6 99 c3 54
7 100 9 102 2 2 21 -1 44 -7 22 -5 40 -8 40 -6 0 3 -16 18 -35 35 -19 17 -32
35 -29 40 3 5 0 8 -8 7 -8 -2 -14 9 -16 32 -1 19 1 31 5 25 15 -19 92 -17 178
4 47 12 95 19 108 16 12 -3 45 1 72 9 66 19 60 19 108 -3z m890 2 c-7 -2 -19
-2 -25 0 -7 3 -2 5 12 5 14 0 19 -2 13 -5z m-718 -53 c-3 -6 -1 -10 4 -10 6 0
11 3 11 8 0 4 12 16 27 26 26 19 26 18 -5 -27 -18 -25 -32 -48 -32 -50 0 -2
11 -2 25 1 34 6 32 -3 -5 -22 -28 -13 -30 -13 -30 3 0 10 -3 40 -6 67 -4 38
-3 45 6 31 6 -9 8 -22 5 -27z m-715 -124 c0 -3 -4 -8 -10 -11 -5 -3 -10 -1
-10 4 0 6 5 11 10 11 6 0 10 -2 10 -4z m9 -88 c-1 -31 -1 -31 -8 -8 -5 14 -6
28 -4 33 9 15 13 6 12 -25z m917 -83 l-10 -80 -12 55 -11 55 -8 -52 c-4 -29
-9 -53 -10 -53 -23 0 -35 17 -35 50 0 34 5 42 47 73 27 20 48 35 49 34 1 -1
-4 -38 -10 -82z m3894 65 c12 -8 11 -10 -7 -10 -13 0 -23 5 -23 10 0 13 11 13
30 0z m-4020 -156 c0 -76 -3 -104 -12 -104 -8 0 -9 -3 -3 -8 15 -11 17 -34 3
-30 -12 4 -45 189 -47 261 l-1 28 30 -21 30 -21 0 -105z m3890 114 c11 -7 8
-8 -10 -4 -14 3 -31 6 -37 6 -7 0 -13 5 -13 11 0 11 33 4 60 -13z m-4298 -15
c-6 -2 -10 -9 -7 -14 4 -5 -1 -6 -10 -2 -13 5 -14 7 -3 14 7 5 18 8 23 8 6 0
4 -3 -3 -6z m-242 -13 c0 -5 -5 -10 -11 -10 -5 0 -7 5 -4 10 3 6 8 10 11 10 2
0 4 -4 4 -10z m-10 -25 c0 -1 -12 -2 -26 -2 -17 0 -22 2 -13 7 10 7 39 3 39
-5z m1276 -32 c-10 -10 -19 5 -10 18 6 11 8 11 12 0 2 -7 1 -15 -2 -18z m-889
-5 c-3 -8 -6 -5 -6 6 -1 11 2 17 5 13 3 -3 4 -12 1 -19z m90 -20 c-3 -8 -6 -5
-6 6 -1 11 2 17 5 13 3 -3 4 -12 1 -19z m-103 6 c9 -3 14 -10 11 -15 -7 -10
-35 0 -35 12 0 11 3 11 24 3z m356 -44 c0 -5 -2 -10 -4 -10 -3 0 -8 5 -11 10
-3 6 -1 10 4 10 6 0 11 -4 11 -10z m3245 -20 c-3 -5 -11 -10 -16 -10 -6 0 -7
5 -4 10 3 6 11 10 16 10 6 0 7 -4 4 -10z m-3262 -50 c-7 -28 -13 -25 -13 6 0
14 4 23 9 20 5 -3 7 -15 4 -26z m244 -12 c-3 -7 -5 -2 -5 12 0 14 2 19 5 13 2
-7 2 -19 0 -25z m100 0 c-3 -8 -6 -5 -6 6 -1 11 2 17 5 13 3 -3 4 -12 1 -19z
m371 4 c6 -18 -15 -14 -22 4 -4 10 -1 14 6 12 6 -2 14 -10 16 -16z m226 -27
c-7 -18 -8 -18 -14 1 -9 23 -1 39 11 27 6 -6 6 -18 3 -28z m1596 2 c0 -2 -12
-14 -27 -28 l-28 -24 24 28 c23 25 31 32 31 24z m-1643 -49 c-3 -7 -5 -2 -5
12 0 14 2 19 5 13 2 -7 2 -19 0 -25z m-952 13 c3 -5 1 -12 -5 -16 -5 -3 -10 1
-10 9 0 18 6 21 15 7z m311 -2 c3 -6 2 -15 -4 -21 -11 -11 -52 6 -52 22 0 14
47 13 56 -1z m604 -26 c0 -19 -3 -24 -10 -17 -6 6 -8 18 -4 27 9 24 14 21 14
-10z m166 13 c12 -10 23 -11 31 -5 7 7 14 6 19 -2 4 -7 3 -9 -2 -6 -6 3 -16
-8 -24 -25 -13 -31 -13 -31 -22 -9 -4 12 -12 20 -17 17 -5 -3 -11 5 -13 19 -6
29 0 31 28 11z m-1451 -56 c3 -5 4 -14 0 -20 -8 -13 -35 -1 -35 16 0 16 26 19
35 4z m2795 -33 c0 -2 -9 -14 -19 -26 -13 -15 -20 -18 -23 -9 -3 7 5 18 16 24
26 15 26 15 26 11z m-2350 -34 c0 -31 -12 -63 -21 -57 -16 9 -11 74 6 74 8 0
15 -8 15 -17z m2160 -11 c0 -4 -15 -9 -32 -10 -18 -1 -42 -5 -53 -7 -11 -3 -6
2 10 10 33 15 75 20 75 7z m317 -14 c-3 -8 -6 -5 -6 6 -1 11 2 17 5 13 3 -3 4
-12 1 -19z m-428 -78 c0 -10 -3 -8 -9 5 -12 27 -12 43 0 25 5 -8 9 -22 9 -30z
m-52 -2 c-3 -7 -5 -2 -5 12 0 14 2 19 5 13 2 -7 2 -19 0 -25z m-112 -8 c-4
-12 -9 -19 -12 -17 -3 3 -2 15 2 27 4 12 9 19 12 17 3 -3 2 -15 -2 -27z m82
-12 c-3 -7 -5 -2 -5 12 0 14 2 19 5 13 2 -7 2 -19 0 -25z m-1727 12 c0 -5 -4
-10 -10 -10 -5 0 -10 5 -10 10 0 6 5 10 10 10 6 0 10 -4 10 -10z m1508 -32
c-10 -49 -18 -61 -18 -30 0 22 16 72 24 72 2 0 0 -19 -6 -42z m-38 -5 c0 -32
-5 -28 -14 10 -4 19 -3 26 4 22 5 -3 10 -18 10 -32z m-106 11 c3 -8 2 -12 -4
-9 -6 3 -10 10 -10 16 0 14 7 11 14 -7z"/>
<path d="M3125 1780 c-8 -13 5 -13 25 0 13 8 13 10 -2 10 -9 0 -20 -4 -23 -10z"/>
<path d="M3258 1763 c7 -3 16 -2 19 1 4 3 -2 6 -13 5 -11 0 -14 -3 -6 -6z"/>
<path d="M2828 1692 c-4 -12 -2 -20 3 -16 5 3 9 1 9 -3 0 -15 -100 -84 -112
-77 -6 4 -8 3 -5 -3 6 -9 -71 -73 -87 -73 -3 0 -33 -13 -66 -29 -33 -16 -58
-25 -54 -20 9 16 -5 10 -31 -13 -13 -11 -21 -26 -18 -32 3 -6 2 -8 -2 -3 -5 4
-16 0 -26 -9 -10 -9 -34 -16 -55 -17 -40 -1 -78 -32 -119 -96 -18 -29 -37 -42
-100 -66 -42 -16 -73 -31 -68 -32 6 -2 31 5 57 17 36 15 52 17 67 10 16 -9 21
-7 29 15 5 14 15 25 21 25 8 0 8 -4 -1 -15 -8 -10 -9 -15 -2 -15 6 0 15 6 19
14 6 12 39 16 146 18 87 2 137 -1 137 -7 0 -6 -42 -9 -112 -7 -62 2 -110 1
-107 -2 2 -3 58 -6 122 -7 64 0 120 -5 123 -10 3 -5 14 -4 25 2 12 6 23 8 26
5 3 -3 -2 -9 -11 -12 -13 -5 -14 -9 -6 -14 8 -5 -5 -11 -31 -15 -24 -4 -55
-14 -69 -22 -25 -14 -24 -14 13 -9 22 3 35 1 32 -5 -8 -12 -7 -12 48 7 26 9
44 20 41 25 -5 9 45 33 53 25 3 -2 -5 -7 -16 -11 -12 -3 -21 -11 -21 -16 0
-12 6 -11 40 6 16 9 42 17 57 19 16 2 42 11 58 19 33 16 97 32 78 20 -24 -16
2 -36 37 -28 25 5 29 9 19 17 -11 8 -10 8 4 4 10 -3 24 -6 30 -6 14 0 -25 -24
-67 -41 -29 -12 -29 -12 -7 -20 12 -5 29 -5 39 1 20 11 180 48 204 47 9 0 15
-4 12 -9 -3 -5 -14 -6 -25 -3 -11 4 -19 2 -19 -4 0 -6 -9 -11 -19 -11 -11 0
-23 -5 -27 -11 -5 -9 1 -10 22 -5 16 4 31 11 34 14 3 4 12 8 20 9 8 1 34 6 57
11 23 5 40 5 37 1 -3 -5 2 -9 11 -9 10 0 13 5 9 12 -4 7 -3 8 5 4 6 -4 9 -12
6 -17 -4 -5 -1 -9 5 -9 6 0 8 -4 5 -10 -3 -5 0 -10 8 -10 12 0 13 6 5 34 -10
31 -13 33 -42 26 -53 -12 -108 0 -130 27 -16 22 -25 24 -60 20 -29 -4 -46 -1
-57 9 -14 13 -25 13 -55 5 -33 -9 -41 -8 -60 10 -13 12 -28 18 -34 14 -6 -4
-26 0 -43 8 -18 9 -40 18 -49 21 -17 5 -19 29 -9 119 1 5 6 5 13 1 6 -4 8 -3
5 4 -4 5 -17 8 -30 6 l-22 -5 23 12 c12 7 22 16 22 21 0 11 -17 10 -25 -2 -3
-5 -10 -10 -15 -10 -9 0 15 27 63 69 26 24 27 24 47 6 29 -26 25 -10 -6 20
-21 21 -23 29 -14 40 8 10 9 23 3 42 -9 26 -10 27 -15 5z m2 -76 c0 -8 -8 -17
-17 -20 -10 -3 -30 -17 -45 -31 -16 -14 -28 -21 -28 -14 0 12 69 79 82 79 4 0
8 -6 8 -14z m-72 -178 c-3 -7 -13 -14 -24 -15 -10 -2 -35 -5 -54 -8 l-35 -4
37 12 c20 7 40 15 44 20 12 12 36 8 32 -5z m-168 -22 c0 -2 -7 -7 -16 -10 -8
-3 -12 -2 -9 4 6 10 25 14 25 6z m30 -156 c-19 -13 -30 -13 -30 0 0 6 10 10
23 10 18 0 19 -2 7 -10z m150 0 c0 -5 -5 -10 -11 -10 -5 0 -7 5 -4 10 3 6 8
10 11 10 2 0 4 -4 4 -10z m260 0 c18 -12 2 -12 -25 0 -13 6 -15 9 -5 9 8 0 22
-4 30 -9z m-790 -20 c0 -5 -7 -7 -15 -4 -8 4 -15 8 -15 10 0 2 7 4 15 4 8 0
15 -4 15 -10z"/>
<path d="M2707 1634 c-26 -13 -56 -26 -65 -28 -72 -15 -78 -18 -104 -65 -18
-32 -22 -48 -13 -48 8 0 11 7 7 16 -5 14 -3 14 10 3 11 -9 18 -10 23 -2 4 6 3
10 -2 9 -34 -6 -15 8 70 51 54 28 104 52 110 53 13 2 27 17 27 30 0 10 -10 8
-63 -19z"/>
<path d="M2347 1633 c-3 -5 26 -8 63 -8 37 0 66 3 63 8 -2 4 -31 7 -63 7 -32
0 -61 -3 -63 -7z"/>
<path d="M2538 1633 c7 -3 16 -2 19 1 4 3 -2 6 -13 5 -11 0 -14 -3 -6 -6z"/>
<path d="M1880 1580 c0 -5 5 -10 10 -10 6 0 10 5 10 10 0 6 -4 10 -10 10 -5 0
-10 -4 -10 -10z"/>
<path d="M2650 1560 c-8 -5 -10 -10 -5 -10 6 0 17 5 25 10 8 5 11 10 5 10 -5
0 -17 -5 -25 -10z"/>
<path d="M1730 1549 c0 -5 5 -7 10 -4 6 3 10 8 10 11 0 2 -4 4 -10 4 -5 0 -10
-5 -10 -11z"/>
<path d="M1565 1520 c-13 -5 -14 -9 -5 -9 8 0 24 4 35 9 13 5 14 9 5 9 -8 0
-24 -4 -35 -9z"/>
<path d="M2810 1522 c0 -5 10 -17 21 -28 22 -19 22 -19 10 3 -12 24 -31 39
-31 25z"/>
<path d="M1438 1513 c7 -3 16 -2 19 1 4 3 -2 6 -13 5 -11 0 -14 -3 -6 -6z"/>
<path d="M1388 1493 c7 -3 16 -2 19 1 4 3 -2 6 -13 5 -11 0 -14 -3 -6 -6z"/>
<path d="M2877 1489 c7 -7 15 -10 18 -7 3 3 -2 9 -12 12 -14 6 -15 5 -6 -5z"/>
<path d="M3053 1465 c15 -14 27 -31 27 -37 0 -6 11 -20 23 -32 13 -12 29 -31
35 -42 11 -19 11 -19 13 1 7 70 8 69 -61 103 -62 31 -64 31 -37 7z m57 -34 c0
-5 7 -17 16 -25 8 -9 11 -16 6 -16 -5 0 -17 11 -26 25 -9 14 -12 25 -6 25 5 0
10 -4 10 -9z"/>
<path d="M3270 1426 c-8 -10 -8 -21 -2 -32 8 -14 10 -11 14 15 5 36 5 36 -12
17z"/>
<path d="M3180 1356 c0 -2 8 -10 18 -17 15 -13 16 -12 3 4 -13 16 -21 21 -21
13z"/>
<path d="M3422 1305 c6 -14 13 -24 14 -22 6 6 -9 47 -17 47 -5 0 -3 -11 3 -25z"/>
<path d="M2305 1250 c-3 -5 -1 -10 4 -10 6 0 11 5 11 10 0 6 -2 10 -4 10 -3 0
-8 -4 -11 -10z"/>
<path d="M3620 1221 c5 -11 15 -23 20 -26 6 -4 4 -12 -5 -21 -8 -9 -15 -20
-15 -26 0 -6 9 -1 19 11 12 13 26 20 33 16 7 -3 0 5 -16 18 -16 14 -25 30 -22
36 4 6 0 11 -9 11 -12 0 -14 -4 -5 -19z"/>
<path d="M2247 1197 c-16 -7 -26 -16 -23 -24 6 -14 -31 -9 -66 8 -24 13 -45
12 -31 -2 11 -11 6 -56 -8 -65 -5 -3 -9 -17 -9 -31 0 -21 2 -24 15 -13 9 7 15
29 15 53 l0 40 23 -21 c20 -18 25 -19 47 -7 14 8 39 13 55 11 17 -2 22 -1 13
1 -15 4 -15 6 3 24 11 11 30 24 42 29 19 7 17 9 -13 8 -19 0 -48 -5 -63 -11z"/>
<path d="M2885 1180 c3 -5 14 -10 23 -10 15 0 15 2 2 10 -20 13 -33 13 -25 0z"/>
<path d="M3386 1145 c4 -8 8 -15 10 -15 2 0 4 7 4 15 0 8 -4 15 -10 15 -5 0
-7 -7 -4 -15z"/>
<path d="M3290 1126 c0 -2 8 -10 18 -17 15 -13 16 -12 3 4 -13 16 -21 21 -21
13z"/>
<path d="M2390 1110 c8 -5 20 -10 25 -10 6 0 3 5 -5 10 -8 5 -19 10 -25 10 -5
0 -3 -5 5 -10z"/>
<path d="M1618 963 c7 -3 16 -2 19 1 4 3 -2 6 -13 5 -11 0 -14 -3 -6 -6z"/>
<path d="M1790 891 l-35 -7 35 -7 c38 -7 209 -27 225 -26 13 1 -133 40 -165
44 -14 2 -41 0 -60 -4z"/>
<path d="M2688 845 c-21 -71 -18 -89 15 -91 20 -2 20 -3 3 61 -9 37 -14 45
-18 30z"/>
<path d="M2647 830 c-31 -89 -30 -92 10 -104 20 -7 21 -5 13 25 -5 17 -7 35
-5 40 3 4 1 18 -4 31 -7 17 -10 19 -14 8z"/>
<path d="M450 1530 c0 -5 5 -10 10 -10 6 0 10 5 10 10 0 6 -4 10 -10 10 -5 0
-10 -4 -10 -10z"/>
</g>
</svg>
